<svg width="124" height="124" viewBox="0 0 124 124" fill="none" xmlns="http://www.w3.org/2000/svg">
<path fill-rule="evenodd" clip-rule="evenodd" d="M62 124C96.2417 124 124 96.2417 124 62C124 27.7583 96.2417 0 62 0C27.7583 0 0 27.7583 0 62C0 96.2417 27.7583 124 62 124ZM66.9053 37.2733L32.3516 65.6466C32.5301 66.3584 32.625 67.1042 32.625 67.8726C32.625 72.8269 28.6795 76.8431 23.8125 76.8431C18.9455 76.8431 15 72.8269 15 67.8726C15 62.9182 18.9455 58.902 23.8125 58.902C25.3347 58.902 26.7667 59.2948 28.0161 59.9863L62.707 31.5004L62.8222 31.4202C64.9602 29.9323 67.5633 29 70.4209 29C77.8837 29 83.9334 35.1583 83.9334 42.7549C83.9334 46.9755 82.0617 50.7546 79.1299 53.2721L79.0992 53.2984L57.3464 71.1316L57.3424 71.1349C55.8767 72.3469 54.95 74.1845 54.95 76.2451C54.95 79.8783 57.8434 82.8235 61.4125 82.8235C61.8038 82.8235 62.1841 82.7885 62.5515 82.7223L91.4529 76.2429C92.0283 71.8551 95.7196 68.4706 100.188 68.4706C105.055 68.4706 109 72.4869 109 77.4412C109 82.3955 105.055 86.4118 100.188 86.4118C97.4538 86.4118 95.0109 85.1447 93.3945 83.1561L63.947 89.7579L63.8893 89.7688C63.0838 89.921 62.2557 90 61.4125 90C53.9498 90 47.9 83.8417 47.9 76.2451C47.9 71.928 49.8579 68.0738 52.9056 65.5577L52.9103 65.5539L74.6114 47.7631C76.0074 46.5511 76.8834 44.7589 76.8834 42.7549C76.8834 39.1217 73.9901 36.1765 70.4209 36.1765C69.1447 36.1765 67.9488 36.5743 66.9053 37.2733Z" fill="#651FFF"/>
</svg>
