<svg width="572" height="100" viewBox="0 0 572 100" fill="none" xmlns="http://www.w3.org/2000/svg">
<path d="M54.7905 42.8593C52.7412 44.9085 49.5742 46.0263 45.2895 46.0263H33.9256V23.4848H45.2895C49.5742 23.4848 52.7412 24.4162 54.7905 26.4655C56.8397 28.3284 57.9574 31.1228 57.9574 34.6624C57.9574 38.0157 57.026 40.8101 54.7905 42.8593ZM86.833 55.1547C84.97 62.2338 81.803 66.5186 76.4005 74.1567C69.3214 84.0302 63.1737 89.4327 60.5656 91.482C51.2509 99.12 46.7798 99.3063 44.9169 99.3063C40.8184 99.12 37.8377 97.4434 35.7885 96.3256C34.4844 95.5804 30.5723 93.1586 24.9835 85.3343C22.3753 81.6084 20.3261 78.2551 17.9043 73.2252C13.4332 64.0968 10.6388 56.4587 8.7759 51.0562C-0.911374 23.8573 -0.352496 17.8959 0.765266 13.6112C1.69674 10.4442 2.44191 7.2772 5.23632 4.48279C12.8744 -3.15525 27.5916 0.570623 40.0732 3.92391C57.2123 8.39496 67.6447 16.2193 74.5376 21.4355C84.0386 28.701 86.2741 32.7994 87.3919 35.9664C90 43.6045 88.137 50.8699 86.833 55.1547ZM66.7132 76.3922L51.8097 51.4288C56.4671 50.4973 60.0067 48.2618 62.4285 45.2811C64.8503 42.1141 65.9681 38.5745 65.9681 34.4761C65.9681 31.1228 65.2229 28.1421 63.7326 25.534C62.2422 22.9259 59.8204 20.8766 56.8397 19.3863C53.6727 17.8959 49.9468 17.1508 45.4758 17.1508H26.2875V76.5785H34.1118V52.3603H43.4265L57.5849 76.5785H66.7132V76.3922Z" fill="url(#paint0_linear_1_105)"/>
<path d="M139.74 56.0861H102.482C102.854 60.7435 104.345 64.2831 107.139 66.8912C109.933 69.4993 113.473 70.8033 117.571 70.8033C120.925 70.8033 123.719 70.0582 125.955 68.3815C128.19 66.8912 129.867 64.6557 130.612 62.0475H138.995C137.691 66.5186 135.269 70.2445 131.543 73.0389C127.818 75.8333 123.16 77.3236 117.571 77.3236C113.1 77.3236 109.188 76.3922 105.649 74.3429C102.109 72.2937 99.501 69.4993 97.4517 65.7734C95.4025 62.0475 94.471 57.9491 94.471 53.1054C94.471 48.2618 95.4025 43.977 97.4517 40.4375C99.3147 36.7116 102.109 33.9172 105.649 32.0542C109.188 30.005 113.1 29.0735 117.758 29.0735C122.229 29.0735 126.141 30.005 129.494 32.0542C132.848 33.9172 135.456 36.7116 137.319 40.0649C139.182 43.4182 140.113 47.3303 140.113 51.6151C139.927 52.7328 139.927 54.4095 139.74 56.0861ZM130.053 42.1141C128.749 40.0649 126.886 38.3882 124.651 37.2705C122.415 36.1527 119.993 35.5938 117.199 35.5938C113.287 35.5938 109.933 36.8979 107.139 39.3197C104.345 41.7415 102.854 45.2811 102.482 49.7521H131.916C131.916 46.7715 131.357 44.1633 130.053 42.1141Z" fill="#6D37D5"/>
<path d="M184.637 34.1035C188.177 37.4568 189.853 42.4867 189.853 49.007V76.5785H182.215V50.1248C182.215 45.4674 181.098 41.9278 178.676 39.506C176.254 37.0842 173.087 35.7801 169.175 35.7801C165.076 35.7801 161.909 37.0842 159.488 39.6923C157.066 42.3004 155.948 46.0263 155.948 50.8699V76.7648H148.124V29.8187H155.948V36.5253C157.438 34.1035 159.488 32.2406 162.282 30.9365C164.89 29.6324 167.871 28.8873 171.038 28.8873C176.44 28.8873 181.098 30.5639 184.637 34.1035Z" fill="#6D37D5"/>
<path d="M200.472 40.4375C202.335 36.8979 205.129 34.1035 208.483 32.0543C211.836 30.005 215.562 29.0736 219.847 29.0736C223.573 29.0736 226.926 30.005 229.907 31.4954C233.074 33.172 235.495 35.4075 236.986 38.0157V13.4249H244.81V76.3922H236.986V67.6364C235.495 70.4308 233.26 72.6663 230.093 74.5292C227.112 76.3922 223.573 77.1373 219.474 77.1373C215.376 77.1373 211.65 76.2059 208.11 74.1566C204.757 72.1074 202.149 69.313 200.1 65.5871C198.237 61.8612 197.119 57.7628 197.119 52.9192C197.491 48.0755 198.609 43.977 200.472 40.4375ZM234.937 43.7908C233.446 41.1826 231.583 39.1334 229.161 37.8294C226.74 36.5253 224.131 35.7801 221.151 35.7801C218.17 35.7801 215.562 36.5253 213.14 37.8294C210.718 39.1334 208.855 41.1826 207.365 43.7908C205.875 46.3989 205.316 49.3796 205.316 52.9192C205.316 56.4587 206.061 59.6257 207.365 62.2338C208.855 64.8419 210.718 66.8912 213.14 68.1952C215.562 69.4993 218.17 70.2445 221.151 70.2445C224.131 70.2445 226.74 69.4993 229.161 68.1952C231.583 66.8912 233.446 64.8419 234.937 62.2338C236.427 59.6257 236.986 56.4587 236.986 52.9192C237.172 49.5659 236.427 46.3989 234.937 43.7908Z" fill="#6D37D5"/>
<path d="M298.276 56.0861H261.018C261.39 60.7435 262.881 64.2831 265.675 66.8912C268.469 69.4993 272.009 70.8033 276.107 70.8033C279.461 70.8033 282.255 70.0582 284.491 68.3815C286.726 66.8912 288.403 64.6557 289.148 62.0475H297.531C296.227 66.5186 293.805 70.2445 290.079 73.0389C286.354 75.8333 281.696 77.3236 276.107 77.3236C271.636 77.3236 267.724 76.3922 264.185 74.3429C260.645 72.2937 258.037 69.4993 255.988 65.7734C253.938 62.0475 253.007 57.9491 253.007 53.1054C253.007 48.2618 253.938 43.977 255.988 40.4375C257.851 36.7116 260.645 33.9172 264.185 32.0542C267.724 30.005 271.636 29.0735 276.294 29.0735C280.765 29.0735 284.677 30.005 288.03 32.0542C291.384 33.9172 293.992 36.7116 295.855 40.0649C297.717 43.4182 298.649 47.3303 298.649 51.6151C298.463 52.7328 298.463 54.4095 298.276 56.0861ZM288.589 42.1141C287.285 40.0649 285.422 38.3882 283.187 37.2705C280.951 36.1527 278.529 35.5938 275.735 35.5938C271.823 35.5938 268.469 36.8979 265.675 39.3197C262.881 41.7415 261.39 45.2811 261.018 49.7521H290.452C290.452 46.7715 289.893 44.1633 288.589 42.1141Z" fill="#6D37D5"/>
<path d="M320.259 31.1228C322.867 29.6324 325.848 28.8873 329.574 28.8873V36.8979H327.524C318.769 36.8979 314.484 41.5552 314.484 51.0562V76.3922H306.66V29.8187H314.484V37.4568C315.788 34.6624 317.651 32.6131 320.259 31.1228Z" fill="#6D37D5"/>
<path d="M378.569 56.0861H341.31C341.683 60.7435 343.173 64.2831 345.968 66.8912C348.762 69.4993 352.302 70.8033 356.4 70.8033C359.753 70.8033 362.548 70.0582 364.783 68.3815C367.019 66.8912 368.695 64.6557 369.441 62.0475H377.824C376.52 66.5186 374.098 70.2445 370.372 73.0389C366.646 75.8333 361.989 77.3236 356.4 77.3236C351.929 77.3236 348.017 76.3922 344.477 74.3429C340.938 72.2937 338.33 69.4993 336.28 65.7734C334.231 62.0475 333.3 57.9491 333.3 53.1054C333.3 48.2618 334.231 43.977 336.28 40.4375C338.143 36.7116 340.938 33.9172 344.477 32.0542C348.017 30.005 351.929 29.0735 356.586 29.0735C361.057 29.0735 364.97 30.005 368.323 32.0542C371.676 33.9172 374.284 36.7116 376.147 40.0649C378.01 43.4182 378.942 47.3303 378.942 51.6151C378.942 52.7328 378.755 54.4095 378.569 56.0861ZM368.882 42.1141C367.578 40.0649 365.715 38.3882 363.479 37.2705C361.244 36.1527 358.822 35.5938 356.027 35.5938C352.115 35.5938 348.762 36.8979 345.968 39.3197C343.173 41.7415 341.683 45.2811 341.31 49.7521H370.745C370.931 46.7715 370.186 44.1633 368.882 42.1141Z" fill="#6D37D5"/>
<path d="M386.952 40.4375C388.815 36.8979 391.61 34.1035 394.963 32.0542C398.316 30.005 402.042 29.0735 406.327 29.0735C410.425 29.0735 413.965 30.005 416.945 31.6817C419.926 33.3583 422.162 35.5938 423.652 38.3882V29.8187H431.476V76.5784H423.652V67.8226C422.162 70.6171 419.74 72.8526 416.759 74.5292C413.778 76.3922 410.239 77.1373 406.14 77.1373C402.042 77.1373 398.316 76.2059 394.963 74.1566C391.61 72.1074 389.001 69.313 386.952 65.5871C385.089 61.8612 383.971 57.7628 383.971 52.9191C384.158 48.0755 385.089 43.977 386.952 40.4375ZM421.417 43.7908C419.926 41.1826 418.063 39.1334 415.641 37.8294C413.22 36.5253 410.611 35.7801 407.631 35.7801C404.65 35.7801 402.042 36.5253 399.62 37.8294C397.198 39.1334 395.335 41.1826 393.845 43.7908C392.355 46.3989 391.796 49.3796 391.796 52.9191C391.796 56.4587 392.541 59.6257 393.845 62.2338C395.335 64.8419 397.198 66.8912 399.62 68.1952C402.042 69.4993 404.65 70.2445 407.631 70.2445C410.611 70.2445 413.22 69.4993 415.641 68.1952C418.063 66.8912 419.926 64.8419 421.417 62.2338C422.907 59.6257 423.466 56.4587 423.466 52.9191C423.652 49.5659 422.907 46.3989 421.417 43.7908Z" fill="#6D37D5"/>
<path d="M457.185 31.6817C460.166 30.005 463.705 29.0736 467.617 29.0736C471.902 29.0736 475.628 30.005 478.981 32.0543C482.335 34.1035 484.943 36.8979 486.992 40.4375C488.855 43.977 489.973 48.2618 489.973 52.9192C489.973 57.5765 489.041 61.8612 486.992 65.5871C485.129 69.313 482.335 72.1074 478.981 74.1566C475.628 76.2059 471.902 77.1373 467.617 77.1373C463.519 77.1373 459.979 76.2059 456.999 74.5292C454.018 72.8526 451.596 70.6171 450.106 67.8226V76.3922H442.468V13.4249H450.292V38.3882C451.782 35.5938 454.204 33.3583 457.185 31.6817ZM479.726 43.7908C478.236 41.1826 476.373 39.1334 473.951 37.8294C471.53 36.5253 468.921 35.7801 465.941 35.7801C463.146 35.7801 460.538 36.5253 458.116 37.8294C455.695 39.1334 453.832 41.1826 452.341 43.7908C450.851 46.3989 450.106 49.5659 450.106 52.9192C450.106 56.4587 450.851 59.4394 452.341 62.2338C453.832 64.8419 455.695 66.8912 458.116 68.1952C460.538 69.4993 463.146 70.2445 465.941 70.2445C468.921 70.2445 471.53 69.4993 473.951 68.1952C476.373 66.8912 478.236 64.8419 479.726 62.2338C481.217 59.6257 481.776 56.4587 481.776 52.9192C481.962 49.3796 481.217 46.3989 479.726 43.7908Z" fill="#6D37D5"/>
<path d="M505.621 13.4249V76.3922H497.797V13.4249H505.621Z" fill="#6D37D5"/>
<path d="M559.088 56.0861H521.829C522.201 60.7435 523.692 64.2831 526.486 66.8912C529.281 69.4993 532.82 70.8033 536.919 70.8033C540.272 70.8033 543.066 70.0582 545.302 68.3815C547.537 66.7049 549.214 64.6557 549.959 62.0475H558.342C557.038 66.5186 554.617 70.2445 550.891 73.0389C547.165 75.8333 542.507 77.3236 536.919 77.3236C532.448 77.3236 528.535 76.3922 524.996 74.3429C521.456 72.2937 518.848 69.4993 516.799 65.7734C514.75 62.0475 513.818 57.9491 513.818 53.1054C513.818 48.2618 514.75 43.977 516.799 40.4375C518.662 36.7116 521.456 33.9172 524.996 32.0542C528.535 30.005 532.448 29.0735 537.105 29.0735C541.576 29.0735 545.488 30.005 548.841 32.0542C552.195 33.9172 554.803 36.7116 556.666 40.0649C558.529 43.4182 559.46 47.3303 559.46 51.6151C559.46 52.7328 559.274 54.4095 559.088 56.0861ZM549.4 42.1141C548.096 40.0649 546.233 38.3882 543.998 37.2705C541.762 36.1527 539.34 35.5938 536.546 35.5938C532.634 35.5938 529.281 36.8979 526.486 39.3197C523.692 41.7415 522.201 45.2811 521.829 49.7521H551.263C551.45 46.7715 550.704 44.1633 549.4 42.1141Z" fill="#6D37D5"/>
<path d="M564.118 75.2744C563.372 74.5292 563 73.5978 563 72.2937C563 70.9896 563.372 70.2445 564.118 69.313C564.863 68.5678 565.794 68.1952 567.098 68.1952C568.216 68.1952 569.147 68.5678 569.893 69.313C570.638 70.0582 571.01 70.9896 571.01 72.2937C571.01 73.5978 570.638 74.3429 569.893 75.2744C569.147 76.0196 568.216 76.3922 567.098 76.3922C565.98 76.3922 564.863 76.0196 564.118 75.2744Z" fill="#6D37D5"/>
<defs>
<linearGradient id="paint0_linear_1_105" x1="-23.1519" y1="17.9101" x2="88.2436" y2="74.6492" gradientUnits="userSpaceOnUse">
<stop stop-color="#E2006D"/>
<stop offset="0.1469" stop-color="#D50678"/>
<stop offset="0.4187" stop-color="#B31697"/>
<stop offset="0.7827" stop-color="#7C30C8"/>
<stop offset="0.8746" stop-color="#6D37D5"/>
</linearGradient>
</defs>
</svg>
