<svg width="451" height="79" viewBox="0 0 451 79" fill="none" xmlns="http://www.w3.org/2000/svg">
<path d="M419.301 11.2997L397.161 21.1097L392.931 12.2897L414.531 0.679688L419.301 11.2997ZM390.591 52.1597C390.591 53.3597 390.801 54.6797 391.221 56.1197C391.701 57.5597 392.421 58.9397 393.381 60.2597C394.401 61.5197 395.691 62.5997 397.251 63.4997C398.811 64.3397 400.731 64.7597 403.011 64.7597C405.351 64.7597 407.301 64.3397 408.861 63.4997C410.481 62.5997 411.771 61.5197 412.731 60.2597C413.751 58.9397 414.471 57.5297 414.891 56.0297C415.311 54.5297 415.521 53.1797 415.521 51.9797C415.521 50.4797 415.251 48.9797 414.711 47.4797C414.231 45.9797 413.451 44.6297 412.371 43.4297C411.351 42.1697 410.031 41.1797 408.411 40.4597C406.851 39.6797 405.021 39.2897 402.921 39.2897C400.761 39.2897 398.901 39.7097 397.341 40.5497C395.841 41.3297 394.581 42.3497 393.561 43.6097C392.541 44.8697 391.791 46.2497 391.311 47.7497C390.831 49.2497 390.591 50.7197 390.591 52.1597ZM430.461 76.9997H415.521V71.5997H415.341C414.681 72.7997 413.841 73.8497 412.821 74.7497C411.801 75.6497 410.631 76.3997 409.311 76.9997C407.991 77.5997 406.581 78.0197 405.081 78.2597C403.641 78.5597 402.201 78.7097 400.761 78.7097C396.801 78.7097 393.261 77.9897 390.141 76.5497C387.021 75.1097 384.381 73.1597 382.221 70.6997C380.121 68.2397 378.501 65.4197 377.361 62.2397C376.221 58.9997 375.651 55.5797 375.651 51.9797C375.651 47.8997 376.341 44.2097 377.721 40.9097C379.101 37.6097 380.931 34.8197 383.211 32.5397C385.491 30.1997 388.131 28.4297 391.131 27.2297C394.191 25.9697 397.401 25.3397 400.761 25.3397C402.801 25.3397 404.631 25.5797 406.251 26.0597C407.871 26.4797 409.281 27.0497 410.481 27.7697C411.681 28.4297 412.671 29.1797 413.451 30.0197C414.231 30.7997 414.861 31.5797 415.341 32.3597H415.521V27.0497H430.461V76.9997Z" fill="url(#paint0_linear_638_1794)"/>
<path d="M372.86 10.3984V50.6284C372.86 53.4484 372.77 55.8484 372.59 57.8284C372.47 59.8084 372.23 61.5184 371.87 62.9584C371.51 64.3984 371.06 65.6284 370.52 66.6484C370.04 67.6684 369.44 68.6284 368.72 69.5284C366.44 72.4684 363.59 74.6584 360.17 76.0984C356.75 77.5384 353.33 78.2584 349.91 78.2584C349.61 78.2584 348.86 78.2284 347.66 78.1684C346.46 78.1084 345.02 77.8684 343.34 77.4484C341.72 77.0284 339.98 76.3684 338.12 75.4684C336.26 74.5084 334.55 73.1884 332.99 71.5084C331.43 69.8284 330.11 67.6984 329.03 65.1184C328.01 62.5384 327.5 59.3584 327.5 55.5784H345.59C345.65 56.3584 345.74 57.1984 345.86 58.0984C345.98 58.9984 346.19 59.8384 346.49 60.6184C346.85 61.3984 347.36 62.0584 348.02 62.5984C348.68 63.0784 349.58 63.3184 350.72 63.3184C351.98 63.3184 352.97 63.0184 353.69 62.4184C354.41 61.8184 354.92 61.0984 355.22 60.2584C355.52 59.3584 355.7 58.4284 355.76 57.4684C355.82 56.5084 355.85 55.6384 355.85 54.8584V10.3984H372.86Z" fill="url(#paint1_linear_638_1794)"/>
<path d="M287.024 51.9797C287.024 53.7797 287.324 55.4597 287.924 57.0197C288.584 58.5797 289.454 59.9297 290.534 61.0697C291.674 62.1497 292.964 63.0197 294.404 63.6797C295.844 64.2797 297.374 64.5797 298.994 64.5797C300.614 64.5797 302.144 64.2797 303.584 63.6797C305.024 63.0197 306.284 62.1497 307.364 61.0697C308.504 59.9297 309.374 58.5797 309.974 57.0197C310.634 55.4597 310.964 53.7797 310.964 51.9797C310.964 50.1797 310.634 48.4997 309.974 46.9397C309.374 45.3797 308.504 44.0597 307.364 42.9797C306.284 41.8397 305.024 40.9697 303.584 40.3697C302.144 39.7097 300.614 39.3797 298.994 39.3797C297.374 39.3797 295.844 39.7097 294.404 40.3697C292.964 40.9697 291.674 41.8397 290.534 42.9797C289.454 44.0597 288.584 45.3797 287.924 46.9397C287.324 48.4997 287.024 50.1797 287.024 51.9797ZM272.084 51.9797C272.084 48.9197 272.624 45.8297 273.704 42.7097C274.844 39.5297 276.524 36.6797 278.744 34.1597C280.964 31.5797 283.754 29.4797 287.114 27.8597C290.474 26.2397 294.434 25.4297 298.994 25.4297C303.554 25.4297 307.514 26.2397 310.874 27.8597C314.234 29.4797 317.024 31.5797 319.244 34.1597C321.464 36.6797 323.114 39.5297 324.194 42.7097C325.334 45.8297 325.904 48.9197 325.904 51.9797C325.904 55.0397 325.334 58.1597 324.194 61.3397C323.114 64.4597 321.464 67.3097 319.244 69.8897C317.024 72.4097 314.234 74.4797 310.874 76.0997C307.514 77.7197 303.554 78.5297 298.994 78.5297C294.434 78.5297 290.474 77.7197 287.114 76.0997C283.754 74.4797 280.964 72.4097 278.744 69.8897C276.524 67.3097 274.844 64.4597 273.704 61.3397C272.624 58.1597 272.084 55.0397 272.084 51.9797Z" fill="url(#paint2_linear_638_1794)"/>
<path d="M257.67 77.0008H243.36L225.45 27.0508H240.93L250.47 58.1908H250.65L260.19 27.0508H275.67L257.67 77.0008Z" fill="url(#paint3_linear_638_1794)"/>
<path d="M209.968 10.3984H224.908V76.9984H209.968V10.3984Z" fill="url(#paint4_linear_638_1794)"/>
<path d="M168.027 51.9797C168.027 53.7797 168.327 55.4597 168.927 57.0197C169.587 58.5797 170.457 59.9297 171.537 61.0697C172.677 62.1497 173.967 63.0197 175.407 63.6797C176.847 64.2797 178.377 64.5797 179.997 64.5797C181.617 64.5797 183.147 64.2797 184.587 63.6797C186.027 63.0197 187.287 62.1497 188.367 61.0697C189.507 59.9297 190.377 58.5797 190.977 57.0197C191.637 55.4597 191.967 53.7797 191.967 51.9797C191.967 50.1797 191.637 48.4997 190.977 46.9397C190.377 45.3797 189.507 44.0597 188.367 42.9797C187.287 41.8397 186.027 40.9697 184.587 40.3697C183.147 39.7097 181.617 39.3797 179.997 39.3797C178.377 39.3797 176.847 39.7097 175.407 40.3697C173.967 40.9697 172.677 41.8397 171.537 42.9797C170.457 44.0597 169.587 45.3797 168.927 46.9397C168.327 48.4997 168.027 50.1797 168.027 51.9797ZM153.087 51.9797C153.087 48.9197 153.627 45.8297 154.707 42.7097C155.847 39.5297 157.527 36.6797 159.747 34.1597C161.967 31.5797 164.757 29.4797 168.117 27.8597C171.477 26.2397 175.437 25.4297 179.997 25.4297C184.557 25.4297 188.517 26.2397 191.877 27.8597C195.237 29.4797 198.027 31.5797 200.247 34.1597C202.467 36.6797 204.117 39.5297 205.197 42.7097C206.337 45.8297 206.907 48.9197 206.907 51.9797C206.907 55.0397 206.337 58.1597 205.197 61.3397C204.117 64.4597 202.467 67.3097 200.247 69.8897C198.027 72.4097 195.237 74.4797 191.877 76.0997C188.517 77.7197 184.557 78.5297 179.997 78.5297C175.437 78.5297 171.477 77.7197 168.117 76.0997C164.757 74.4797 161.967 72.4097 159.747 69.8897C157.527 67.3097 155.847 64.4597 154.707 61.3397C153.627 58.1597 153.087 55.0397 153.087 51.9797Z" fill="url(#paint5_linear_638_1794)"/>
<path d="M138.673 77.0008H124.363L106.453 27.0508H121.933L131.473 58.1908H131.653L141.193 27.0508H156.673L138.673 77.0008Z" fill="url(#paint6_linear_638_1794)"/>
<path d="M95.2169 46.4898C95.0369 45.7698 94.7069 44.9298 94.2269 43.9698C93.8069 42.9498 93.1469 41.9898 92.2469 41.0898C91.3469 40.1898 90.2069 39.4398 88.8269 38.8398C87.4469 38.2398 85.7969 37.9398 83.8769 37.9398C81.9569 37.9398 80.3069 38.2398 78.9269 38.8398C77.5469 39.4398 76.4069 40.1898 75.5069 41.0898C74.6069 41.9898 73.9169 42.9498 73.4369 43.9698C73.0169 44.9298 72.7169 45.7698 72.5369 46.4898H95.2169ZM108.447 61.3398C107.247 64.1598 105.777 66.6498 104.037 68.8098C102.297 70.9098 100.377 72.6798 98.2769 74.1198C94.0769 77.1198 89.3369 78.6198 84.0569 78.6198C80.4569 78.6198 77.0669 77.9598 73.8869 76.6398C70.7069 75.2598 67.8869 73.3698 65.4269 70.9698C63.0269 68.5698 61.1069 65.7798 59.6669 62.5998C58.2869 59.3598 57.5969 55.8798 57.5969 52.1598C57.5969 48.6798 58.2269 45.3198 59.4869 42.0798C60.8069 38.8398 62.6369 35.9898 64.9769 33.5298C67.3169 31.0698 70.0769 29.0898 73.2569 27.5898C76.4969 26.0898 80.0069 25.3398 83.7869 25.3398C87.5669 25.3398 91.0769 26.0598 94.3169 27.4998C97.5569 28.8798 100.347 30.7998 102.687 33.2598C105.027 35.7198 106.857 38.6298 108.177 41.9898C109.497 45.2898 110.157 48.8298 110.157 52.6098C110.157 53.6298 110.127 54.4098 110.067 54.9498C110.007 55.4298 109.917 55.9698 109.797 56.5698H72.3569C72.8369 59.5698 74.1569 61.9098 76.3169 63.5898C78.5369 65.2098 81.1169 66.0198 84.0569 66.0198C86.3369 66.0198 88.1669 65.5698 89.5469 64.6698C90.9269 63.7698 92.1269 62.6598 93.1469 61.3398H108.447Z" fill="url(#paint7_linear_638_1794)"/>
<path fill-rule="evenodd" clip-rule="evenodd" d="M22.9375 12H0V77H24.1625C30.2875 77 35.4792 76.1509 39.7375 74.4527C43.9958 72.6959 47.4375 70.3243 50.0625 67.3378C52.6875 64.3514 54.5833 60.8964 55.75 56.973C56.9167 52.991 57.5 48.7748 57.5 44.3243C57.5 40.7523 57.0625 37.268 56.1875 33.8716C55.3125 30.4752 53.7667 27.2252 51.55 24.1216C49.45 21.0766 47.1167 18.7342 44.55 17.0946C41.9833 15.455 39.3875 14.2545 36.7625 13.4932C34.1958 12.732 31.6875 12.2928 29.2375 12.1757C26.8458 12.0586 24.7458 12 22.9375 12ZM26.0303 64H16.5375V26H26.1271C28.126 26 29.8671 26.1863 31.3502 26.5588C32.8978 26.9314 34.2197 27.4281 35.3159 28.049C36.4121 28.6078 37.3471 29.2908 38.1209 30.098C38.8947 30.8431 39.5396 31.5882 40.0554 32.3333C41.3451 34.3203 42.2478 36.4624 42.7637 38.7598C43.2796 40.9951 43.5375 43.1062 43.5375 45.0931C43.5375 47.5147 43.2473 49.8742 42.667 52.1716C42.1511 54.469 41.2161 56.4869 39.862 58.2255C38.5723 59.9641 36.799 61.3611 34.5421 62.4167C32.2852 63.4722 29.4479 64 26.0303 64Z" fill="url(#paint8_linear_638_1794)"/>
<path d="M450.89 76.9997H435.5V61.6997H450.89V76.9997ZM450.89 55.0397H435.5V10.3997H450.89V55.0397Z" fill="url(#paint9_linear_638_1794)"/>
<defs>
<linearGradient id="paint0_linear_638_1794" x1="0" y1="39.6947" x2="387" y2="39.6947" gradientUnits="userSpaceOnUse">
<stop offset="0.302521" stop-color="#009B3A"/>
<stop offset="1" stop-color="#FEDF00"/>
</linearGradient>
<linearGradient id="paint1_linear_638_1794" x1="0" y1="39.6947" x2="387" y2="39.6947" gradientUnits="userSpaceOnUse">
<stop offset="0.302521" stop-color="#009B3A"/>
<stop offset="1" stop-color="#FEDF00"/>
</linearGradient>
<linearGradient id="paint2_linear_638_1794" x1="0" y1="39.6947" x2="387" y2="39.6947" gradientUnits="userSpaceOnUse">
<stop offset="0.302521" stop-color="#009B3A"/>
<stop offset="1" stop-color="#FEDF00"/>
</linearGradient>
<linearGradient id="paint3_linear_638_1794" x1="0" y1="39.6947" x2="387" y2="39.6947" gradientUnits="userSpaceOnUse">
<stop offset="0.302521" stop-color="#009B3A"/>
<stop offset="1" stop-color="#FEDF00"/>
</linearGradient>
<linearGradient id="paint4_linear_638_1794" x1="0" y1="39.6947" x2="387" y2="39.6947" gradientUnits="userSpaceOnUse">
<stop offset="0.302521" stop-color="#009B3A"/>
<stop offset="1" stop-color="#FEDF00"/>
</linearGradient>
<linearGradient id="paint5_linear_638_1794" x1="0" y1="39.6947" x2="387" y2="39.6947" gradientUnits="userSpaceOnUse">
<stop offset="0.302521" stop-color="#009B3A"/>
<stop offset="1" stop-color="#FEDF00"/>
</linearGradient>
<linearGradient id="paint6_linear_638_1794" x1="0" y1="39.6947" x2="387" y2="39.6947" gradientUnits="userSpaceOnUse">
<stop offset="0.302521" stop-color="#009B3A"/>
<stop offset="1" stop-color="#FEDF00"/>
</linearGradient>
<linearGradient id="paint7_linear_638_1794" x1="0" y1="39.6947" x2="387" y2="39.6947" gradientUnits="userSpaceOnUse">
<stop offset="0.302521" stop-color="#009B3A"/>
<stop offset="1" stop-color="#FEDF00"/>
</linearGradient>
<linearGradient id="paint8_linear_638_1794" x1="0" y1="39.6947" x2="387" y2="39.6947" gradientUnits="userSpaceOnUse">
<stop offset="0.302521" stop-color="#009B3A"/>
<stop offset="1" stop-color="#FEDF00"/>
</linearGradient>
<linearGradient id="paint9_linear_638_1794" x1="0" y1="39.6947" x2="387" y2="39.6947" gradientUnits="userSpaceOnUse">
<stop offset="0.302521" stop-color="#009B3A"/>
<stop offset="1" stop-color="#FEDF00"/>
</linearGradient>
</defs>
</svg>
