<svg width="467" height="84" viewBox="0 0 467 84" fill="none" xmlns="http://www.w3.org/2000/svg">
<path d="M427.004 42.1598C427.004 43.3598 427.214 44.6798 427.634 46.1198C428.114 47.5598 428.834 48.9398 429.794 50.2598C430.814 51.5198 432.104 52.5998 433.664 53.4998C435.224 54.3398 437.144 54.7598 439.424 54.7598C441.764 54.7598 443.713 54.3398 445.273 53.4998C446.893 52.5998 448.184 51.5198 449.144 50.2598C450.164 48.9398 450.883 47.5298 451.303 46.0298C451.723 44.5298 451.934 43.1798 451.934 41.9798C451.934 40.4798 451.664 38.9798 451.124 37.4798C450.644 35.9798 449.864 34.6298 448.784 33.4298C447.764 32.1698 446.444 31.1798 444.824 30.4598C443.264 29.6798 441.433 29.2898 439.333 29.2898C437.173 29.2898 435.314 29.7098 433.754 30.5498C432.254 31.3298 430.994 32.3498 429.974 33.6098C428.954 34.8698 428.204 36.2498 427.724 37.7498C427.244 39.2498 427.004 40.7198 427.004 42.1598ZM466.874 66.9998H451.934V61.5998H451.754C451.094 62.7998 450.254 63.8498 449.234 64.7498C448.214 65.6498 447.044 66.3998 445.724 66.9998C444.404 67.5998 442.993 68.0198 441.493 68.2598C440.053 68.5598 438.614 68.7098 437.174 68.7098C433.214 68.7098 429.673 67.9898 426.553 66.5498C423.433 65.1098 420.794 63.1598 418.634 60.6998C416.534 58.2398 414.913 55.4198 413.773 52.2398C412.633 48.9998 412.064 45.5798 412.064 41.9798C412.064 37.8998 412.754 34.2098 414.134 30.9098C415.514 27.6098 417.344 24.8198 419.624 22.5398C421.904 20.1998 424.544 18.4298 427.544 17.2298C430.604 15.9698 433.814 15.3398 437.174 15.3398C439.214 15.3398 441.044 15.5798 442.664 16.0598C444.284 16.4798 445.694 17.0498 446.894 17.7698C448.094 18.4298 449.084 19.1798 449.864 20.0198C450.644 20.7998 451.274 21.5798 451.754 22.3598H451.934V17.0498H466.874V66.9998Z" fill="#6A9CFF"/>
<path d="M417.018 17.0469L391.998 83.6469H376.158L384.078 64.4769L365.538 17.0469H381.468L391.458 46.0269H391.638L401.178 17.0469H417.018Z" fill="#6A9CFF"/>
<path d="M331.665 41.9797C331.665 43.7797 331.965 45.4597 332.565 47.0197C333.225 48.5797 334.095 49.9297 335.175 51.0697C336.315 52.1497 337.605 53.0197 339.045 53.6797C340.485 54.2797 342.015 54.5797 343.635 54.5797C345.255 54.5797 346.785 54.2797 348.225 53.6797C349.665 53.0197 350.925 52.1497 352.005 51.0697C353.145 49.9297 354.015 48.5797 354.615 47.0197C355.275 45.4597 355.605 43.7797 355.605 41.9797C355.605 40.1797 355.275 38.4997 354.615 36.9397C354.015 35.3797 353.145 34.0597 352.005 32.9797C350.925 31.8397 349.665 30.9697 348.225 30.3697C346.785 29.7097 345.255 29.3797 343.635 29.3797C342.015 29.3797 340.485 29.7097 339.045 30.3697C337.605 30.9697 336.315 31.8397 335.175 32.9797C334.095 34.0597 333.225 35.3797 332.565 36.9397C331.965 38.4997 331.665 40.1797 331.665 41.9797ZM316.725 41.9797C316.725 38.9197 317.265 35.8297 318.345 32.7097C319.485 29.5297 321.165 26.6797 323.385 24.1597C325.605 21.5797 328.395 19.4797 331.755 17.8597C335.115 16.2397 339.075 15.4297 343.635 15.4297C348.195 15.4297 352.155 16.2397 355.515 17.8597C358.875 19.4797 361.665 21.5797 363.885 24.1597C366.105 26.6797 367.755 29.5297 368.835 32.7097C369.975 35.8297 370.545 38.9197 370.545 41.9797C370.545 45.0397 369.975 48.1597 368.835 51.3397C367.755 54.4597 366.105 57.3097 363.885 59.8897C361.665 62.4097 358.875 64.4797 355.515 66.0997C352.155 67.7197 348.195 68.5297 343.635 68.5297C339.075 68.5297 335.115 67.7197 331.755 66.0997C328.395 64.4797 325.605 62.4097 323.385 59.8897C321.165 57.3097 319.485 54.4597 318.345 51.3397C317.265 48.1597 316.725 45.0397 316.725 41.9797Z" fill="#6A9CFF"/>
<path d="M303.311 66.9969H289.001L271.091 17.0469H286.571L296.111 48.1869H296.291L305.831 17.0469H321.311L303.311 66.9969Z" fill="#6A9CFF"/>
<path d="M256.609 0.398438H271.549V66.9984H256.609V0.398438Z" fill="#6A9CFF"/>
<path d="M240.745 36.4898C240.565 35.7698 240.235 34.9298 239.755 33.9698C239.335 32.9498 238.675 31.9898 237.775 31.0898C236.875 30.1898 235.735 29.4398 234.355 28.8398C232.975 28.2398 231.325 27.9398 229.405 27.9398C227.485 27.9398 225.835 28.2398 224.455 28.8398C223.075 29.4398 221.935 30.1898 221.035 31.0898C220.135 31.9898 219.445 32.9498 218.965 33.9698C218.545 34.9298 218.245 35.7698 218.065 36.4898H240.745ZM253.975 51.3398C252.775 54.1598 251.305 56.6498 249.565 58.8098C247.825 60.9098 245.905 62.6798 243.805 64.1198C239.605 67.1198 234.865 68.6198 229.585 68.6198C225.985 68.6198 222.595 67.9598 219.415 66.6398C216.235 65.2598 213.415 63.3698 210.955 60.9698C208.555 58.5698 206.635 55.7798 205.195 52.5998C203.815 49.3598 203.125 45.8798 203.125 42.1598C203.125 38.6798 203.755 35.3198 205.015 32.0798C206.335 28.8398 208.165 25.9898 210.505 23.5298C212.845 21.0698 215.605 19.0898 218.785 17.5898C222.025 16.0898 225.535 15.3398 229.315 15.3398C233.095 15.3398 236.605 16.0598 239.845 17.4998C243.085 18.8798 245.875 20.7998 248.215 23.2598C250.555 25.7198 252.385 28.6298 253.705 31.9898C255.025 35.2898 255.685 38.8298 255.685 42.6098C255.685 43.6298 255.655 44.4098 255.595 44.9498C255.535 45.4298 255.445 45.9698 255.325 46.5698H217.885C218.365 49.5698 219.685 51.9098 221.845 53.5898C224.065 55.2098 226.645 56.0198 229.585 56.0198C231.865 56.0198 233.695 55.5698 235.075 54.6698C236.455 53.7698 237.655 52.6598 238.675 51.3398H253.975Z" fill="#6A9CFF"/>
<path d="M202.444 66.9969H188.314V61.6869H188.134C187.354 63.3069 186.424 64.5669 185.344 65.4669C184.264 66.3669 183.124 67.0569 181.924 67.5369C180.724 68.0169 179.524 68.3169 178.324 68.4369C177.184 68.5569 176.134 68.6169 175.174 68.6169C174.394 68.6169 173.404 68.5569 172.204 68.4369C171.004 68.3169 169.714 68.0169 168.334 67.5369C166.954 67.1169 165.574 66.4869 164.194 65.6469C162.814 64.8069 161.584 63.6969 160.504 62.3169C159.484 61.0569 158.674 59.8869 158.074 58.8069C157.534 57.6669 157.084 56.5269 156.724 55.3869C156.424 54.1869 156.214 52.9269 156.094 51.6069C156.034 50.2269 156.004 48.6669 156.004 46.9269V17.0469H170.944V44.6769C170.944 45.5169 170.974 46.5369 171.034 47.7369C171.154 48.8769 171.454 49.9569 171.934 50.9769C172.414 51.9969 173.194 52.8669 174.274 53.5869C175.414 54.3069 176.974 54.6669 178.954 54.6669C180.034 54.6669 181.084 54.5169 182.104 54.2169C183.124 53.8569 184.024 53.3169 184.804 52.5969C185.644 51.8169 186.304 50.7669 186.784 49.4469C187.264 48.1269 187.504 46.4769 187.504 44.4969V17.0469H202.444V66.9969Z" fill="#6A9CFF"/>
<path d="M137.673 66.9969H123.363L105.453 17.0469H120.933L130.473 48.1869H130.653L140.193 17.0469H155.673L137.673 66.9969Z" fill="#6A9CFF"/>
<path d="M95.2169 36.4898C95.0369 35.7698 94.7069 34.9298 94.2269 33.9698C93.8069 32.9498 93.1469 31.9898 92.2469 31.0898C91.3469 30.1898 90.2069 29.4398 88.8269 28.8398C87.4469 28.2398 85.7969 27.9398 83.8769 27.9398C81.9569 27.9398 80.3069 28.2398 78.9269 28.8398C77.5469 29.4398 76.4069 30.1898 75.5069 31.0898C74.6069 31.9898 73.9169 32.9498 73.4369 33.9698C73.0169 34.9298 72.7169 35.7698 72.5369 36.4898H95.2169ZM108.447 51.3398C107.247 54.1598 105.777 56.6498 104.037 58.8098C102.297 60.9098 100.377 62.6798 98.2769 64.1198C94.0769 67.1198 89.3369 68.6198 84.0569 68.6198C80.4569 68.6198 77.0669 67.9598 73.8869 66.6398C70.7069 65.2598 67.8869 63.3698 65.4269 60.9698C63.0269 58.5698 61.1069 55.7798 59.6669 52.5998C58.2869 49.3598 57.5969 45.8798 57.5969 42.1598C57.5969 38.6798 58.2269 35.3198 59.4869 32.0798C60.8069 28.8398 62.6369 25.9898 64.9769 23.5298C67.3169 21.0698 70.0769 19.0898 73.2569 17.5898C76.4969 16.0898 80.0069 15.3398 83.7869 15.3398C87.5669 15.3398 91.0769 16.0598 94.3169 17.4998C97.5569 18.8798 100.347 20.7998 102.687 23.2598C105.027 25.7198 106.857 28.6298 108.177 31.9898C109.497 35.2898 110.157 38.8298 110.157 42.6098C110.157 43.6298 110.127 44.4098 110.067 44.9498C110.007 45.4298 109.917 45.9698 109.797 46.5698H72.3569C72.8369 49.5698 74.1569 51.9098 76.3169 53.5898C78.5369 55.2098 81.1169 56.0198 84.0569 56.0198C86.3369 56.0198 88.1669 55.5698 89.5469 54.6698C90.9269 53.7698 92.1269 52.6598 93.1469 51.3398H108.447Z" fill="#6A9CFF"/>
<path fill-rule="evenodd" clip-rule="evenodd" d="M22.9375 2H0V67H24.1625C30.2875 67 35.4792 66.1509 39.7375 64.4527C43.9958 62.6959 47.4375 60.3243 50.0625 57.3378C52.6875 54.3514 54.5833 50.8964 55.75 46.973C56.9167 42.991 57.5 38.7748 57.5 34.3243C57.5 30.7523 57.0625 27.268 56.1875 23.8716C55.3125 20.4752 53.7667 17.2252 51.55 14.1216C49.45 11.0766 47.1167 8.73423 44.55 7.09459C41.9833 5.45495 39.3875 4.2545 36.7625 3.49324C34.1958 2.73198 31.6875 2.29279 29.2375 2.17567C26.8458 2.05856 24.7458 2 22.9375 2ZM26.0303 54H16.5375V16H26.1271C28.126 16 29.8671 16.1863 31.3502 16.5588C32.8978 16.9314 34.2197 17.4281 35.3159 18.049C36.4121 18.6078 37.3471 19.2908 38.1209 20.098C38.8947 20.8431 39.5396 21.5882 40.0554 22.3333C41.3451 24.3203 42.2478 26.4624 42.7637 28.7598C43.2796 30.9951 43.5375 33.1062 43.5375 35.0931C43.5375 37.5147 43.2473 39.8742 42.667 42.1716C42.1511 44.469 41.2161 46.4869 39.862 48.2255C38.5723 49.9641 36.799 51.3611 34.5421 52.4167C32.2852 53.4722 29.4479 54 26.0303 54Z" fill="#6A9CFF"/>
</svg>
